<svg xmlns="http://www.w3.org/2000/svg" xmlns:xlink="http://www.w3.org/1999/xlink" viewBox="0,0,256,256" width="50px" height="50px" fill-rule="nonzero"><g fill="#e9e9e9" fill-rule="nonzero" stroke="none" stroke-width="1" stroke-linecap="butt" stroke-linejoin="miter" stroke-miterlimit="10" stroke-dasharray="" stroke-dashoffset="0" font-family="none" font-weight="none" font-size="none" text-anchor="none" style="mix-blend-mode: normal"><g transform="scale(5.12,5.12)"><path d="M16.67,9.33c-9.2,0 -16.67,7.47 -16.67,16.67c0,8.5 6.38,15.53 14.61,16.54l3.72,-11.82c-0.52,0.18 -1.08,0.28 -1.66,0.28c-2.77,0 -5,-2.23 -5,-5c0,-2.77 2.23,-5 5,-5c1.69,0 3.18,0.84 4.08,2.12c1.75,-5.12 3.34,-8.6 5.22,-10.95c-2.66,-1.79 -5.86,-2.84 -9.3,-2.84zM35.4,21.833c4.234,1.218 9.233,0 9.233,0c-1.45,6.333 -6.05,10.3 -12.683,10.783c-2.55,5.917 -8.433,10.05 -15.283,10.05l5,-15.891c5.14,-16.335 7.774,-17.442 19.963,-17.442h8.37c-1.4,6.167 -6.225,10.878 -14.6,12.5z"></path></g></g></svg>